<svg xmlns="http://www.w3.org/2000/svg" xmlns:xlink="http://www.w3.org/1999/xlink" width="1100" zoomAndPan="magnify" viewBox="0 0 824.88 449.999984" height="600" preserveAspectRatio="xMidYMid meet" version="1.0"><defs><g/><clipPath id="215217ea89"><path d="M 0 0.03125 L 824.761719 0.03125 L 824.761719 449.964844 L 0 449.964844 Z M 0 0.03125 " clip-rule="nonzero"/></clipPath><clipPath id="7993d77c62"><path d="M 0 0.03125 L 778.753906 0.03125 L 778.753906 449.964844 L 0 449.964844 Z M 0 0.03125 " clip-rule="nonzero"/></clipPath><clipPath id="1448273976"><path d="M 37.269531 108.023438 L 307.992188 108.023438 L 307.992188 307.511719 L 37.269531 307.511719 Z M 37.269531 108.023438 " clip-rule="nonzero"/></clipPath><clipPath id="c55ecb22cc"><path d="M 81 0.03125 L 458 0.03125 L 458 314 L 81 314 Z M 81 0.03125 " clip-rule="nonzero"/></clipPath><clipPath id="175b268318"><path d="M 234.367188 -69.667969 L 457.855469 172.53125 L 304.820312 313.742188 L 81.332031 71.546875 Z M 234.367188 -69.667969 " clip-rule="nonzero"/></clipPath><clipPath id="8eb1385d8c"><path d="M 0 0.03125 L 302.847656 0.03125 L 302.847656 322.339844 L 0 322.339844 Z M 0 0.03125 " clip-rule="nonzero"/></clipPath><clipPath id="9812a2e590"><path d="M 177.289062 -84.460938 L 302.742188 40.988281 L 21.488281 322.246094 L -103.964844 196.792969 Z M 177.289062 -84.460938 " clip-rule="nonzero"/></clipPath><clipPath id="9f9ffe849f"><path d="M 188.578125 19.589844 L 252.578125 19.589844 L 252.578125 265.179688 L 188.578125 265.179688 Z M 188.578125 19.589844 " clip-rule="nonzero"/></clipPath><clipPath id="f2b32c3874"><path d="M 121.414062 60.882812 L 172.632812 60.882812 L 172.632812 307.511719 L 121.414062 307.511719 Z M 121.414062 60.882812 " clip-rule="nonzero"/></clipPath><clipPath id="436a1d4e94"><path d="M 144.25 265 L 360.519531 265 L 360.519531 412.96875 L 144.25 412.96875 Z M 144.25 265 " clip-rule="nonzero"/></clipPath><clipPath id="3b59d77390"><path d="M 172.582031 265.179688 L 360.460938 325.695312 L 332.574219 412.285156 L 144.691406 351.773438 Z M 172.582031 265.179688 " clip-rule="nonzero"/></clipPath><clipPath id="2f0c1439a1"><path d="M 78 274 L 328.59375 274 L 328.59375 449.964844 L 78 449.964844 Z M 78 274 " clip-rule="nonzero"/></clipPath><clipPath id="f5ae3ddecd"><path d="M 78.164062 392.085938 L 172.167969 274.1875 L 328.144531 398.550781 L 234.140625 516.445312 Z M 78.164062 392.085938 " clip-rule="nonzero"/></clipPath><clipPath id="81546b665d"><path d="M 90 242.011719 L 157.640625 242.011719 L 157.640625 314 L 90 314 Z M 90 242.011719 " clip-rule="nonzero"/></clipPath><clipPath id="a1dac9262a"><path d="M 90.363281 289.496094 L 123.664062 242.902344 L 157.582031 267.140625 L 124.28125 313.738281 Z M 90.363281 289.496094 " clip-rule="nonzero"/></clipPath><clipPath id="f03c89c253"><path d="M 0 265 L 197.804688 265 L 197.804688 407 L 0 407 Z M 0 265 " clip-rule="nonzero"/></clipPath><clipPath id="244ec08b49"><path d="M -17.03125 319.40625 L 172.757812 265.179688 L 197.75 352.648438 L 7.960938 406.878906 Z M -17.03125 319.40625 " clip-rule="nonzero"/></clipPath><clipPath id="01891936b7"><path d="M 125 274 L 362.578125 274 L 362.578125 449.964844 L 125 449.964844 Z M 125 274 " clip-rule="nonzero"/></clipPath><clipPath id="f09787f4f2"><path d="M 125.699219 417.480469 L 172.628906 274.1875 L 362.203125 336.277344 L 315.273438 479.570312 Z M 125.699219 417.480469 " clip-rule="nonzero"/></clipPath><clipPath id="245c40b282"><path d="M 0 274 L 214.28125 274 L 214.28125 449.964844 L 0 449.964844 Z M 0 274 " clip-rule="nonzero"/></clipPath><clipPath id="879f8546b9"><path d="M 22.367188 474.140625 L -19.214844 329.203125 L 172.53125 274.1875 L 214.117188 419.121094 Z M 22.367188 474.140625 " clip-rule="nonzero"/></clipPath><clipPath id="485cbec745"><path d="M 0 274 L 43.328125 274 L 43.328125 449.964844 L 0 449.964844 Z M 0 274 " clip-rule="nonzero"/></clipPath><clipPath id="7b57d9e3fb"><path d="M -34.429688 274.191406 L 43.019531 312.519531 L -38.589844 477.425781 L -116.042969 439.09375 Z M -34.429688 274.191406 " clip-rule="nonzero"/></clipPath><clipPath id="082d2196c9"><path d="M 0 311.011719 L 201.921875 311.011719 L 201.921875 449.964844 L 0 449.964844 Z M 0 311.011719 " clip-rule="nonzero"/></clipPath><clipPath id="c0b81da026"><path d="M 42.632812 311.734375 L 201.640625 390.429688 L 120.03125 555.335938 L -38.980469 476.640625 Z M 42.632812 311.734375 " clip-rule="nonzero"/></clipPath><clipPath id="7372650b01"><path d="M 37.148438 367.652344 L 278 367.652344 L 278 449.964844 L 37.148438 449.964844 Z M 37.148438 367.652344 " clip-rule="nonzero"/></clipPath><clipPath id="a9527f4fa0"><path d="M 118.878906 367.65625 L 277.890625 446.351562 L 196.277344 611.257812 L 37.269531 532.5625 Z M 118.878906 367.65625 " clip-rule="nonzero"/></clipPath><clipPath id="8cb78169be"><path d="M 144.25 307 L 389.355469 307 L 389.355469 449.964844 L 144.25 449.964844 Z M 144.25 307 " clip-rule="nonzero"/></clipPath><clipPath id="66c65cb0f0"><path d="M 308.570312 307.511719 L 389.222656 465.542969 L 225.335938 549.179688 L 144.6875 391.152344 Z M 308.570312 307.511719 " clip-rule="nonzero"/></clipPath><clipPath id="e3059c4349"><path d="M 305 231 L 551 231 L 551 449.964844 L 305 449.964844 Z M 305 231 " clip-rule="nonzero"/></clipPath><clipPath id="39fbfcc017"><path d="M 468.683594 231.703125 L 550.824219 388.960938 L 387.734375 474.144531 L 305.59375 316.882812 Z M 468.683594 231.703125 " clip-rule="nonzero"/></clipPath><clipPath id="3f3bc0b562"><path d="M 75.253906 0.03125 L 187 0.03125 L 187 223 L 75.253906 223 Z M 75.253906 0.03125 " clip-rule="nonzero"/></clipPath><clipPath id="26e252a38f"><path d="M 141.320312 -1.917969 L 186.578125 12.242188 L 120.8125 222.484375 L 75.550781 208.324219 Z M 141.320312 -1.917969 " clip-rule="nonzero"/></clipPath><clipPath id="aa1f137fdb"><path d="M 108.207031 220 L 154 220 L 154 274.96875 L 108.207031 274.96875 Z M 108.207031 220 " clip-rule="nonzero"/></clipPath><clipPath id="9ea230fc08"><path d="M 108.414062 264.703125 L 121.5625 220.089844 L 153.726562 229.570312 L 140.574219 274.183594 Z M 108.414062 264.703125 " clip-rule="nonzero"/></clipPath><clipPath id="3af7bc4313"><path d="M 167 187.429688 L 259 187.429688 L 259 284 L 167 284 Z M 167 187.429688 " clip-rule="nonzero"/></clipPath><clipPath id="78a4e7ebaf"><path d="M 237.355469 283.871094 L 167.089844 207.375 L 188.480469 187.722656 L 258.75 264.21875 Z M 237.355469 283.871094 " clip-rule="nonzero"/></clipPath><clipPath id="6bf942085b"><path d="M 139.097656 196.390625 L 172.628906 196.390625 L 172.628906 242.898438 L 139.097656 242.898438 Z M 139.097656 196.390625 " clip-rule="nonzero"/></clipPath><clipPath id="13eecd646b"><path d="M 175.148438 229.652344 L 220 229.652344 L 220 274.96875 L 175.148438 274.96875 Z M 175.148438 229.652344 " clip-rule="nonzero"/></clipPath><clipPath id="b7cd47dae4"><path d="M 200.007812 274.183594 L 175.761719 247.792969 L 195.488281 229.679688 L 219.726562 256.066406 Z M 200.007812 274.183594 " clip-rule="nonzero"/></clipPath><clipPath id="e4978eb8a4"><path d="M 184.414062 242.011719 L 211 242.011719 L 211 268 L 184.414062 268 Z M 184.414062 242.011719 " clip-rule="nonzero"/></clipPath><clipPath id="927504827c"><path d="M 191.03125 267.863281 L 184.742188 261.015625 L 204.464844 242.902344 L 210.753906 249.75 Z M 191.03125 267.863281 " clip-rule="nonzero"/></clipPath><clipPath id="c6d572b142"><path d="M 191.625 233.773438 L 232.816406 233.773438 L 232.816406 275.996094 L 191.625 275.996094 Z M 191.625 233.773438 " clip-rule="nonzero"/></clipPath><clipPath id="c864eb9323"><path d="M 215.90625 275.480469 L 191.664062 249.09375 L 208.296875 233.8125 L 232.535156 260.203125 Z M 215.90625 275.480469 " clip-rule="nonzero"/></clipPath><clipPath id="406bb6adaa"><path d="M 182 215.234375 L 226.640625 215.234375 L 226.640625 260.550781 L 182 260.550781 Z M 182 215.234375 " clip-rule="nonzero"/></clipPath><clipPath id="4ba15d4224"><path d="M 206.484375 260.300781 L 182.242188 233.910156 L 201.964844 215.796875 L 226.207031 242.183594 Z M 206.484375 260.300781 " clip-rule="nonzero"/></clipPath><clipPath id="4ac167d463"><path d="M 153 0.03125 L 424 0.03125 L 424 257.460938 L 153 257.460938 Z M 153 0.03125 " clip-rule="nonzero"/></clipPath><clipPath id="7bb4671574"><path d="M 153.257812 -106.582031 L 324.414062 -153.300781 L 423.753906 210.632812 L 252.597656 257.351562 Z M 153.257812 -106.582031 " clip-rule="nonzero"/></clipPath><clipPath id="36238b04c2"><path d="M 174.117188 139.027344 L 201.921875 139.027344 L 201.921875 205 L 174.117188 205 Z M 174.117188 139.027344 " clip-rule="nonzero"/></clipPath><clipPath id="aee24baf6c"><path d="M 174.640625 141.910156 L 188.691406 139.027344 L 201.644531 202.09375 L 187.59375 204.976562 Z M 174.640625 141.910156 " clip-rule="nonzero"/></clipPath><clipPath id="8c5613acb6"><path d="M 172.058594 181 L 218 181 L 218 228.625 L 172.058594 228.625 Z M 172.058594 181 " clip-rule="nonzero"/></clipPath><clipPath id="1eb016783a"><path d="M 172.632812 190.0625 L 182.402344 181.074219 L 217.824219 219.582031 L 208.054688 228.566406 Z M 172.632812 190.0625 " clip-rule="nonzero"/></clipPath></defs><g clip-path="url(#215217ea89)"><path fill="#ffffff" d="M 0 0.03125 L 824.878906 0.03125 L 824.878906 449.96875 L 0 449.96875 Z M 0 0.03125 " fill-opacity="1" fill-rule="nonzero"/><path fill="#ffffff" d="M 0 0.03125 L 824.878906 0.03125 L 824.878906 449.96875 L 0 449.96875 Z M 0 0.03125 " fill-opacity="1" fill-rule="nonzero"/></g><g clip-path="url(#7993d77c62)"><path fill="#ffffff" d="M -455.234375 -98.867188 L 778.753906 -98.867188 L 778.753906 595.25 L -455.234375 595.25 Z M -455.234375 -98.867188 " fill-opacity="1" fill-rule="nonzero"/><path fill="#ffffff" d="M -455.234375 -98.867188 L 778.753906 -98.867188 L 778.753906 595.25 L -455.234375 595.25 Z M -455.234375 -98.867188 " fill-opacity="1" fill-rule="nonzero"/></g><g clip-path="url(#1448273976)"><path fill="#222120" d="M 37.269531 108.023438 L 307.667969 108.023438 L 307.667969 307.511719 L 37.269531 307.511719 Z M 37.269531 108.023438 " fill-opacity="1" fill-rule="nonzero"/></g><g clip-path="url(#c55ecb22cc)"><g clip-path="url(#175b268318)"><path fill="#ffffff" d="M 234.367188 -69.667969 L 457.773438 172.441406 L 304.738281 313.660156 L 81.332031 71.546875 Z M 234.367188 -69.667969 " fill-opacity="1" fill-rule="nonzero"/></g></g><g clip-path="url(#8eb1385d8c)"><g clip-path="url(#9812a2e590)"><path fill="#ffffff" d="M 177.289062 -84.460938 L 302.742188 40.988281 L 21.449219 322.285156 L -104 196.832031 Z M 177.289062 -84.460938 " fill-opacity="1" fill-rule="nonzero"/></g></g><g clip-path="url(#9f9ffe849f)"><path fill="#0f92c4" d="M 188.578125 19.589844 L 252.578125 19.589844 L 252.578125 265.074219 L 188.578125 265.074219 Z M 188.578125 19.589844 " fill-opacity="1" fill-rule="nonzero"/></g><g clip-path="url(#f2b32c3874)"><path fill="#0f92c4" d="M 121.414062 60.882812 L 172.632812 60.882812 L 172.632812 307.554688 L 121.414062 307.554688 Z M 121.414062 60.882812 " fill-opacity="1" fill-rule="nonzero"/></g><g clip-path="url(#436a1d4e94)"><g clip-path="url(#3b59d77390)"><path fill="#ffffff" d="M 172.582031 265.179688 L 360.304688 325.644531 L 332.417969 412.234375 L 144.691406 351.773438 Z M 172.582031 265.179688 " fill-opacity="1" fill-rule="nonzero"/></g></g><g clip-path="url(#2f0c1439a1)"><g clip-path="url(#f5ae3ddecd)"><path fill="#222120" d="M 78.164062 392.085938 L 172.167969 274.1875 L 328.289062 398.664062 L 234.285156 516.5625 Z M 78.164062 392.085938 " fill-opacity="1" fill-rule="nonzero"/></g></g><g clip-path="url(#81546b665d)"><g clip-path="url(#a1dac9262a)"><path fill="#0f92c4" d="M 90.363281 289.496094 L 123.691406 242.855469 L 157.613281 267.097656 L 124.28125 313.738281 Z M 90.363281 289.496094 " fill-opacity="1" fill-rule="nonzero"/></g></g><g clip-path="url(#f03c89c253)"><g clip-path="url(#244ec08b49)"><path fill="#ffffff" d="M -17.03125 319.40625 L 172.601562 265.222656 L 197.59375 352.691406 L 7.960938 406.878906 Z M -17.03125 319.40625 " fill-opacity="1" fill-rule="nonzero"/></g></g><g clip-path="url(#01891936b7)"><g clip-path="url(#f09787f4f2)"><path fill="#222120" d="M 125.699219 417.480469 L 172.628906 274.1875 L 362.378906 336.332031 L 315.453125 479.625 Z M 125.699219 417.480469 " fill-opacity="1" fill-rule="nonzero"/></g></g><g clip-path="url(#245c40b282)"><g clip-path="url(#879f8546b9)"><path fill="#222120" d="M 22.367188 474.140625 L -19.214844 329.203125 L 172.710938 274.132812 L 214.292969 419.074219 Z M 22.367188 474.140625 " fill-opacity="1" fill-rule="nonzero"/></g></g><g clip-path="url(#485cbec745)"><g clip-path="url(#7b57d9e3fb)"><path fill="#ffffff" d="M -34.429688 274.191406 L 43.019531 312.519531 L -38.582031 477.40625 L -116.03125 439.074219 Z M -34.429688 274.191406 " fill-opacity="1" fill-rule="nonzero"/></g></g><g clip-path="url(#082d2196c9)"><g clip-path="url(#c0b81da026)"><path fill="#ffffff" d="M 42.632812 311.734375 L 201.640625 390.429688 L 120.179688 555.035156 L -38.832031 476.339844 Z M 42.632812 311.734375 " fill-opacity="1" fill-rule="nonzero"/></g></g><g clip-path="url(#7372650b01)"><g clip-path="url(#a9527f4fa0)"><path fill="#ffffff" d="M 118.878906 367.65625 L 277.890625 446.351562 L 196.429688 610.957031 L 37.417969 532.261719 Z M 118.878906 367.65625 " fill-opacity="1" fill-rule="nonzero"/></g></g><g clip-path="url(#8cb78169be)"><g clip-path="url(#66c65cb0f0)"><path fill="#ffffff" d="M 308.574219 307.511719 L 389.222656 465.542969 L 225.636719 549.027344 L 144.988281 391 Z M 308.574219 307.511719 " fill-opacity="1" fill-rule="nonzero"/></g></g><g clip-path="url(#e3059c4349)"><g clip-path="url(#39fbfcc017)"><path fill="#ffffff" d="M 468.683594 231.703125 L 550.824219 388.960938 L 388.035156 473.984375 L 305.898438 316.722656 Z M 468.683594 231.703125 " fill-opacity="1" fill-rule="nonzero"/></g></g><g clip-path="url(#3f3bc0b562)"><g clip-path="url(#26e252a38f)"><path fill="#ffffff" d="M 141.320312 -1.917969 L 186.578125 12.242188 L 120.820312 222.46875 L 75.554688 208.308594 Z M 141.320312 -1.917969 " fill-opacity="1" fill-rule="nonzero"/></g></g><g clip-path="url(#aa1f137fdb)"><g clip-path="url(#9ea230fc08)"><path fill="#0f92c4" d="M 108.414062 264.703125 L 121.558594 220.105469 L 153.722656 229.582031 L 140.574219 274.183594 Z M 108.414062 264.703125 " fill-opacity="1" fill-rule="nonzero"/></g></g><g clip-path="url(#3af7bc4313)"><g clip-path="url(#78a4e7ebaf)"><path fill="#222120" d="M 237.355469 283.871094 L 167.125 207.414062 L 188.515625 187.765625 L 258.75 264.21875 Z M 237.355469 283.871094 " fill-opacity="1" fill-rule="nonzero"/></g></g><g clip-path="url(#6bf942085b)"><path fill="#0f92c4" d="M 139.097656 196.402344 L 172.628906 196.402344 L 172.628906 242.898438 L 139.097656 242.898438 Z M 139.097656 196.402344 " fill-opacity="1" fill-rule="nonzero"/></g><g clip-path="url(#13eecd646b)"><g clip-path="url(#b7cd47dae4)"><path fill="#222120" d="M 200.007812 274.183594 L 175.734375 247.761719 L 195.453125 229.640625 L 219.726562 256.066406 Z M 200.007812 274.183594 " fill-opacity="1" fill-rule="nonzero"/></g></g><g clip-path="url(#e4978eb8a4)"><g clip-path="url(#927504827c)"><path fill="#222120" d="M 191.03125 267.863281 L 184.742188 261.015625 L 204.453125 242.910156 L 210.742188 249.757812 Z M 191.03125 267.863281 " fill-opacity="1" fill-rule="nonzero"/></g></g><g clip-path="url(#c6d572b142)"><g clip-path="url(#c864eb9323)"><path fill="#222120" d="M 215.90625 275.480469 L 191.675781 249.105469 L 208.308594 233.824219 L 232.535156 260.203125 Z M 215.90625 275.480469 " fill-opacity="1" fill-rule="nonzero"/></g></g><g clip-path="url(#406bb6adaa)"><g clip-path="url(#4ba15d4224)"><path fill="#222120" d="M 206.484375 260.300781 L 182.210938 233.878906 L 201.929688 215.757812 L 226.207031 242.183594 Z M 206.484375 260.300781 " fill-opacity="1" fill-rule="nonzero"/></g></g><g clip-path="url(#4ac167d463)"><g clip-path="url(#7bb4671574)"><path fill="#ffffff" d="M 153.257812 -106.582031 L 324.414062 -153.300781 L 423.695312 210.410156 L 252.535156 257.128906 Z M 153.257812 -106.582031 " fill-opacity="1" fill-rule="nonzero"/></g></g><g clip-path="url(#36238b04c2)"><g clip-path="url(#aee24baf6c)"><path fill="#ffffff" d="M 174.640625 141.910156 L 188.691406 139.027344 L 201.640625 202.089844 L 187.59375 204.972656 Z M 174.640625 141.910156 " fill-opacity="1" fill-rule="nonzero"/></g></g><g clip-path="url(#8c5613acb6)"><g clip-path="url(#1eb016783a)"><path fill="#222120" d="M 172.632812 190.0625 L 182.402344 181.074219 L 217.832031 219.589844 L 208.0625 228.574219 Z M 172.632812 190.0625 " fill-opacity="1" fill-rule="nonzero"/></g></g><g fill="#0f92c4" fill-opacity="1"><g transform="translate(378.275311, 272.439342)"><g><path d="M 70.234375 0 L 3.03125 0 L 3.03125 -12.421875 L 46.328125 -74.484375 L 4.203125 -74.484375 L 4.203125 -90.296875 L 69.0625 -90.296875 L 69.0625 -77.953125 L 25.8125 -15.8125 L 70.234375 -15.8125 Z M 70.234375 0 "/></g></g></g><g fill="#0f92c4" fill-opacity="1"><g transform="translate(451.523073, 272.439342)"><g><path d="M 11.359375 0 L 11.359375 -90.296875 L 30.515625 -90.296875 L 30.515625 0 Z M 11.359375 0 "/></g></g></g><g fill="#0f92c4" fill-opacity="1"><g transform="translate(493.396583, 272.439342)"><g><path d="M 93.328125 -45.28125 C 93.328125 -30.332031 89.617188 -18.84375 82.203125 -10.8125 C 74.796875 -2.78125 64.175781 1.234375 50.34375 1.234375 C 36.507812 1.234375 25.882812 -2.78125 18.46875 -10.8125 C 11.050781 -18.84375 7.34375 -30.375 7.34375 -45.40625 C 7.34375 -60.425781 11.0625 -71.898438 18.5 -79.828125 C 25.9375 -87.753906 36.59375 -91.71875 50.46875 -91.71875 C 64.34375 -91.71875 74.953125 -87.722656 82.296875 -79.734375 C 89.648438 -71.753906 93.328125 -60.269531 93.328125 -45.28125 Z M 27.421875 -45.28125 C 27.421875 -35.1875 29.332031 -27.585938 33.15625 -22.484375 C 36.988281 -17.378906 42.71875 -14.828125 50.34375 -14.828125 C 65.613281 -14.828125 73.25 -24.976562 73.25 -45.28125 C 73.25 -65.613281 65.65625 -75.78125 50.46875 -75.78125 C 42.84375 -75.78125 37.09375 -73.21875 33.21875 -68.09375 C 29.351562 -62.96875 27.421875 -55.363281 27.421875 -45.28125 Z M 27.421875 -45.28125 "/></g></g></g><g fill="#0f92c4" fill-opacity="1"><g transform="translate(594.065935, 272.439342)"><g><path d="M 91.484375 0 L 67.140625 0 L 27.859375 -68.3125 L 27.296875 -68.3125 C 28.078125 -56.25 28.46875 -47.644531 28.46875 -42.5 L 28.46875 0 L 11.359375 0 L 11.359375 -90.296875 L 35.515625 -90.296875 L 74.734375 -22.671875 L 75.171875 -22.671875 C 74.554688 -34.398438 74.25 -42.695312 74.25 -47.5625 L 74.25 -90.296875 L 91.484375 -90.296875 Z M 91.484375 0 "/></g></g></g><path stroke-linecap="butt" transform="matrix(0.749891, 0.0000000000000001, -0.0000000000000001, 0.749891, 378.196246, 279.011428)" fill="none" stroke-linejoin="miter" d="M -0.00124468 2.000678 L 425.1179 2.000678 " stroke="#222120" stroke-width="4" stroke-opacity="1" stroke-miterlimit="4"/><path stroke-linecap="butt" transform="matrix(0.749891, -0.0000530198, 0.0000530198, 0.749891, 430.461264, 300.285717)" fill="none" stroke-linejoin="miter" d="M -0.000577311 1.999543 L 285.723286 1.998908 " stroke="#222120" stroke-width="4" stroke-opacity="1" stroke-miterlimit="4"/></svg>