<svg xmlns="http://www.w3.org/2000/svg" xmlns:xlink="http://www.w3.org/1999/xlink" width="1100" zoomAndPan="magnify" viewBox="0 0 824.88 449.999984" height="600" preserveAspectRatio="xMidYMid meet" version="1.0"><defs><g/><clipPath id="f0f008b27a"><path d="M 0 0.03125 L 824.761719 0.03125 L 824.761719 449.964844 L 0 449.964844 Z M 0 0.03125 " clip-rule="nonzero"/></clipPath><clipPath id="5016c03e4d"><path d="M 0 0.03125 L 778.753906 0.03125 L 778.753906 449.964844 L 0 449.964844 Z M 0 0.03125 " clip-rule="nonzero"/></clipPath><clipPath id="0bf703adb9"><path d="M 37.269531 108.023438 L 307.992188 108.023438 L 307.992188 307.511719 L 37.269531 307.511719 Z M 37.269531 108.023438 " clip-rule="nonzero"/></clipPath><clipPath id="4ffebbe240"><path d="M 81 0.03125 L 458 0.03125 L 458 314 L 81 314 Z M 81 0.03125 " clip-rule="nonzero"/></clipPath><clipPath id="bf374b703b"><path d="M 234.367188 -69.667969 L 457.855469 172.53125 L 304.820312 313.742188 L 81.332031 71.546875 Z M 234.367188 -69.667969 " clip-rule="nonzero"/></clipPath><clipPath id="4b94b78162"><path d="M 0 0.03125 L 302.847656 0.03125 L 302.847656 322.339844 L 0 322.339844 Z M 0 0.03125 " clip-rule="nonzero"/></clipPath><clipPath id="b4011fc689"><path d="M 177.289062 -84.460938 L 302.742188 40.988281 L 21.488281 322.246094 L -103.964844 196.792969 Z M 177.289062 -84.460938 " clip-rule="nonzero"/></clipPath><clipPath id="ad810f7055"><path d="M 188.578125 19.589844 L 252.578125 19.589844 L 252.578125 265.179688 L 188.578125 265.179688 Z M 188.578125 19.589844 " clip-rule="nonzero"/></clipPath><clipPath id="ca32099ac7"><path d="M 121.414062 60.882812 L 172.632812 60.882812 L 172.632812 307.511719 L 121.414062 307.511719 Z M 121.414062 60.882812 " clip-rule="nonzero"/></clipPath><clipPath id="9705dbc573"><path d="M 144.25 265 L 360.519531 265 L 360.519531 412.96875 L 144.25 412.96875 Z M 144.25 265 " clip-rule="nonzero"/></clipPath><clipPath id="503dc5e839"><path d="M 172.582031 265.179688 L 360.460938 325.695312 L 332.574219 412.285156 L 144.691406 351.773438 Z M 172.582031 265.179688 " clip-rule="nonzero"/></clipPath><clipPath id="73affd4ffc"><path d="M 78 274 L 328.59375 274 L 328.59375 449.964844 L 78 449.964844 Z M 78 274 " clip-rule="nonzero"/></clipPath><clipPath id="2dd74bddc6"><path d="M 78.164062 392.085938 L 172.167969 274.1875 L 328.144531 398.550781 L 234.140625 516.445312 Z M 78.164062 392.085938 " clip-rule="nonzero"/></clipPath><clipPath id="753021e777"><path d="M 90 242.011719 L 157.640625 242.011719 L 157.640625 314 L 90 314 Z M 90 242.011719 " clip-rule="nonzero"/></clipPath><clipPath id="8c1f7508e5"><path d="M 90.363281 289.496094 L 123.664062 242.902344 L 157.582031 267.140625 L 124.28125 313.738281 Z M 90.363281 289.496094 " clip-rule="nonzero"/></clipPath><clipPath id="a58f2ff7cf"><path d="M 0 265 L 197.804688 265 L 197.804688 407 L 0 407 Z M 0 265 " clip-rule="nonzero"/></clipPath><clipPath id="620aae126d"><path d="M -17.03125 319.40625 L 172.757812 265.179688 L 197.75 352.648438 L 7.960938 406.878906 Z M -17.03125 319.40625 " clip-rule="nonzero"/></clipPath><clipPath id="4c1c999d6a"><path d="M 125 274 L 362.578125 274 L 362.578125 449.964844 L 125 449.964844 Z M 125 274 " clip-rule="nonzero"/></clipPath><clipPath id="089b7a942e"><path d="M 125.699219 417.480469 L 172.628906 274.1875 L 362.203125 336.277344 L 315.273438 479.570312 Z M 125.699219 417.480469 " clip-rule="nonzero"/></clipPath><clipPath id="215858f66f"><path d="M 0 274 L 214.28125 274 L 214.28125 449.964844 L 0 449.964844 Z M 0 274 " clip-rule="nonzero"/></clipPath><clipPath id="d92c2d7838"><path d="M 22.367188 474.140625 L -19.214844 329.203125 L 172.53125 274.1875 L 214.117188 419.121094 Z M 22.367188 474.140625 " clip-rule="nonzero"/></clipPath><clipPath id="7756621bce"><path d="M 0 274 L 43.328125 274 L 43.328125 449.964844 L 0 449.964844 Z M 0 274 " clip-rule="nonzero"/></clipPath><clipPath id="5616ce1fc5"><path d="M -34.429688 274.191406 L 43.019531 312.519531 L -38.589844 477.425781 L -116.042969 439.09375 Z M -34.429688 274.191406 " clip-rule="nonzero"/></clipPath><clipPath id="b7d3e7ce3e"><path d="M 0 311.011719 L 201.921875 311.011719 L 201.921875 449.964844 L 0 449.964844 Z M 0 311.011719 " clip-rule="nonzero"/></clipPath><clipPath id="763f987ade"><path d="M 42.632812 311.734375 L 201.640625 390.429688 L 120.03125 555.335938 L -38.980469 476.640625 Z M 42.632812 311.734375 " clip-rule="nonzero"/></clipPath><clipPath id="e8c19ec78a"><path d="M 37.148438 367.652344 L 278 367.652344 L 278 449.964844 L 37.148438 449.964844 Z M 37.148438 367.652344 " clip-rule="nonzero"/></clipPath><clipPath id="667ad6e48d"><path d="M 118.878906 367.65625 L 277.890625 446.351562 L 196.277344 611.257812 L 37.269531 532.5625 Z M 118.878906 367.65625 " clip-rule="nonzero"/></clipPath><clipPath id="fef588cdf4"><path d="M 144.25 307 L 389.355469 307 L 389.355469 449.964844 L 144.25 449.964844 Z M 144.25 307 " clip-rule="nonzero"/></clipPath><clipPath id="6635ce7ba1"><path d="M 308.570312 307.511719 L 389.222656 465.542969 L 225.335938 549.179688 L 144.6875 391.152344 Z M 308.570312 307.511719 " clip-rule="nonzero"/></clipPath><clipPath id="5facc79c82"><path d="M 305 231 L 551 231 L 551 449.964844 L 305 449.964844 Z M 305 231 " clip-rule="nonzero"/></clipPath><clipPath id="a8f1baae34"><path d="M 468.683594 231.703125 L 550.824219 388.960938 L 387.734375 474.144531 L 305.59375 316.882812 Z M 468.683594 231.703125 " clip-rule="nonzero"/></clipPath><clipPath id="a97e0c7d54"><path d="M 75.253906 0.03125 L 187 0.03125 L 187 223 L 75.253906 223 Z M 75.253906 0.03125 " clip-rule="nonzero"/></clipPath><clipPath id="f3e088b14a"><path d="M 141.320312 -1.917969 L 186.578125 12.242188 L 120.8125 222.484375 L 75.550781 208.324219 Z M 141.320312 -1.917969 " clip-rule="nonzero"/></clipPath><clipPath id="099e9a373f"><path d="M 108.207031 220 L 154 220 L 154 274.96875 L 108.207031 274.96875 Z M 108.207031 220 " clip-rule="nonzero"/></clipPath><clipPath id="ad53583cb6"><path d="M 108.414062 264.703125 L 121.5625 220.089844 L 153.726562 229.570312 L 140.574219 274.183594 Z M 108.414062 264.703125 " clip-rule="nonzero"/></clipPath><clipPath id="b9262791fb"><path d="M 167 187.429688 L 259 187.429688 L 259 284 L 167 284 Z M 167 187.429688 " clip-rule="nonzero"/></clipPath><clipPath id="5e6a867cf8"><path d="M 237.355469 283.871094 L 167.089844 207.375 L 188.480469 187.722656 L 258.75 264.21875 Z M 237.355469 283.871094 " clip-rule="nonzero"/></clipPath><clipPath id="2c44970a27"><path d="M 139.097656 196.390625 L 172.628906 196.390625 L 172.628906 242.898438 L 139.097656 242.898438 Z M 139.097656 196.390625 " clip-rule="nonzero"/></clipPath><clipPath id="fc030af0f4"><path d="M 175.148438 229.652344 L 220 229.652344 L 220 274.96875 L 175.148438 274.96875 Z M 175.148438 229.652344 " clip-rule="nonzero"/></clipPath><clipPath id="fc0e2b974a"><path d="M 200.007812 274.183594 L 175.761719 247.792969 L 195.488281 229.679688 L 219.726562 256.066406 Z M 200.007812 274.183594 " clip-rule="nonzero"/></clipPath><clipPath id="0135e77fbd"><path d="M 184.414062 242.011719 L 211 242.011719 L 211 268 L 184.414062 268 Z M 184.414062 242.011719 " clip-rule="nonzero"/></clipPath><clipPath id="4447764c31"><path d="M 191.03125 267.863281 L 184.742188 261.015625 L 204.464844 242.902344 L 210.753906 249.75 Z M 191.03125 267.863281 " clip-rule="nonzero"/></clipPath><clipPath id="5f17d0438a"><path d="M 191.625 233.773438 L 232.816406 233.773438 L 232.816406 275.996094 L 191.625 275.996094 Z M 191.625 233.773438 " clip-rule="nonzero"/></clipPath><clipPath id="9ceecc8c8a"><path d="M 215.90625 275.480469 L 191.664062 249.09375 L 208.296875 233.8125 L 232.535156 260.203125 Z M 215.90625 275.480469 " clip-rule="nonzero"/></clipPath><clipPath id="6d197fd8d2"><path d="M 182 215.234375 L 226.640625 215.234375 L 226.640625 260.550781 L 182 260.550781 Z M 182 215.234375 " clip-rule="nonzero"/></clipPath><clipPath id="70c782b87a"><path d="M 206.484375 260.300781 L 182.242188 233.910156 L 201.964844 215.796875 L 226.207031 242.183594 Z M 206.484375 260.300781 " clip-rule="nonzero"/></clipPath><clipPath id="1d4e574c7b"><path d="M 153 0.03125 L 424 0.03125 L 424 257.460938 L 153 257.460938 Z M 153 0.03125 " clip-rule="nonzero"/></clipPath><clipPath id="d887efcc46"><path d="M 153.257812 -106.582031 L 324.414062 -153.300781 L 423.753906 210.632812 L 252.597656 257.351562 Z M 153.257812 -106.582031 " clip-rule="nonzero"/></clipPath><clipPath id="a2dbb143d2"><path d="M 174.117188 139.027344 L 201.921875 139.027344 L 201.921875 205 L 174.117188 205 Z M 174.117188 139.027344 " clip-rule="nonzero"/></clipPath><clipPath id="02e4dfb1f5"><path d="M 174.640625 141.910156 L 188.691406 139.027344 L 201.644531 202.09375 L 187.59375 204.976562 Z M 174.640625 141.910156 " clip-rule="nonzero"/></clipPath><clipPath id="bdcdc53705"><path d="M 172.058594 181 L 218 181 L 218 228.625 L 172.058594 228.625 Z M 172.058594 181 " clip-rule="nonzero"/></clipPath><clipPath id="01f6c11c52"><path d="M 172.632812 190.0625 L 182.402344 181.074219 L 217.824219 219.582031 L 208.054688 228.566406 Z M 172.632812 190.0625 " clip-rule="nonzero"/></clipPath></defs><g clip-path="url(#f0f008b27a)"><path fill="#ffffff" d="M 0 0.03125 L 824.878906 0.03125 L 824.878906 449.96875 L 0 449.96875 Z M 0 0.03125 " fill-opacity="1" fill-rule="nonzero"/><path fill="#ffffff" d="M 0 0.03125 L 824.878906 0.03125 L 824.878906 449.96875 L 0 449.96875 Z M 0 0.03125 " fill-opacity="1" fill-rule="nonzero"/></g><g clip-path="url(#5016c03e4d)"><path fill="#ffffff" d="M -455.234375 -98.867188 L 778.753906 -98.867188 L 778.753906 595.25 L -455.234375 595.25 Z M -455.234375 -98.867188 " fill-opacity="1" fill-rule="nonzero"/><path fill="#ffffff" d="M -455.234375 -98.867188 L 778.753906 -98.867188 L 778.753906 595.25 L -455.234375 595.25 Z M -455.234375 -98.867188 " fill-opacity="1" fill-rule="nonzero"/></g><g clip-path="url(#0bf703adb9)"><path fill="#222120" d="M 37.269531 108.023438 L 307.667969 108.023438 L 307.667969 307.511719 L 37.269531 307.511719 Z M 37.269531 108.023438 " fill-opacity="1" fill-rule="nonzero"/></g><g clip-path="url(#4ffebbe240)"><g clip-path="url(#bf374b703b)"><path fill="#ffffff" d="M 234.367188 -69.667969 L 457.773438 172.441406 L 304.738281 313.660156 L 81.332031 71.546875 Z M 234.367188 -69.667969 " fill-opacity="1" fill-rule="nonzero"/></g></g><g clip-path="url(#4b94b78162)"><g clip-path="url(#b4011fc689)"><path fill="#ffffff" d="M 177.289062 -84.460938 L 302.742188 40.988281 L 21.449219 322.285156 L -104 196.832031 Z M 177.289062 -84.460938 " fill-opacity="1" fill-rule="nonzero"/></g></g><g clip-path="url(#ad810f7055)"><path fill="#0f92c4" d="M 188.578125 19.589844 L 252.578125 19.589844 L 252.578125 265.074219 L 188.578125 265.074219 Z M 188.578125 19.589844 " fill-opacity="1" fill-rule="nonzero"/></g><g clip-path="url(#ca32099ac7)"><path fill="#0f92c4" d="M 121.414062 60.882812 L 172.632812 60.882812 L 172.632812 307.554688 L 121.414062 307.554688 Z M 121.414062 60.882812 " fill-opacity="1" fill-rule="nonzero"/></g><g clip-path="url(#9705dbc573)"><g clip-path="url(#503dc5e839)"><path fill="#ffffff" d="M 172.582031 265.179688 L 360.304688 325.644531 L 332.417969 412.234375 L 144.691406 351.773438 Z M 172.582031 265.179688 " fill-opacity="1" fill-rule="nonzero"/></g></g><g clip-path="url(#73affd4ffc)"><g clip-path="url(#2dd74bddc6)"><path fill="#222120" d="M 78.164062 392.085938 L 172.167969 274.1875 L 328.289062 398.664062 L 234.285156 516.5625 Z M 78.164062 392.085938 " fill-opacity="1" fill-rule="nonzero"/></g></g><g clip-path="url(#753021e777)"><g clip-path="url(#8c1f7508e5)"><path fill="#0f92c4" d="M 90.363281 289.496094 L 123.691406 242.855469 L 157.613281 267.097656 L 124.28125 313.738281 Z M 90.363281 289.496094 " fill-opacity="1" fill-rule="nonzero"/></g></g><g clip-path="url(#a58f2ff7cf)"><g clip-path="url(#620aae126d)"><path fill="#ffffff" d="M -17.03125 319.40625 L 172.601562 265.222656 L 197.59375 352.691406 L 7.960938 406.878906 Z M -17.03125 319.40625 " fill-opacity="1" fill-rule="nonzero"/></g></g><g clip-path="url(#4c1c999d6a)"><g clip-path="url(#089b7a942e)"><path fill="#222120" d="M 125.699219 417.480469 L 172.628906 274.1875 L 362.378906 336.332031 L 315.453125 479.625 Z M 125.699219 417.480469 " fill-opacity="1" fill-rule="nonzero"/></g></g><g clip-path="url(#215858f66f)"><g clip-path="url(#d92c2d7838)"><path fill="#222120" d="M 22.367188 474.140625 L -19.214844 329.203125 L 172.710938 274.132812 L 214.292969 419.074219 Z M 22.367188 474.140625 " fill-opacity="1" fill-rule="nonzero"/></g></g><g clip-path="url(#7756621bce)"><g clip-path="url(#5616ce1fc5)"><path fill="#ffffff" d="M -34.429688 274.191406 L 43.019531 312.519531 L -38.582031 477.40625 L -116.03125 439.074219 Z M -34.429688 274.191406 " fill-opacity="1" fill-rule="nonzero"/></g></g><g clip-path="url(#b7d3e7ce3e)"><g clip-path="url(#763f987ade)"><path fill="#ffffff" d="M 42.632812 311.734375 L 201.640625 390.429688 L 120.179688 555.035156 L -38.832031 476.339844 Z M 42.632812 311.734375 " fill-opacity="1" fill-rule="nonzero"/></g></g><g clip-path="url(#e8c19ec78a)"><g clip-path="url(#667ad6e48d)"><path fill="#ffffff" d="M 118.878906 367.65625 L 277.890625 446.351562 L 196.429688 610.957031 L 37.417969 532.261719 Z M 118.878906 367.65625 " fill-opacity="1" fill-rule="nonzero"/></g></g><g clip-path="url(#fef588cdf4)"><g clip-path="url(#6635ce7ba1)"><path fill="#ffffff" d="M 308.574219 307.511719 L 389.222656 465.542969 L 225.636719 549.027344 L 144.988281 391 Z M 308.574219 307.511719 " fill-opacity="1" fill-rule="nonzero"/></g></g><g clip-path="url(#5facc79c82)"><g clip-path="url(#a8f1baae34)"><path fill="#ffffff" d="M 468.683594 231.703125 L 550.824219 388.960938 L 388.035156 473.984375 L 305.898438 316.722656 Z M 468.683594 231.703125 " fill-opacity="1" fill-rule="nonzero"/></g></g><g clip-path="url(#a97e0c7d54)"><g clip-path="url(#f3e088b14a)"><path fill="#ffffff" d="M 141.320312 -1.917969 L 186.578125 12.242188 L 120.820312 222.46875 L 75.554688 208.308594 Z M 141.320312 -1.917969 " fill-opacity="1" fill-rule="nonzero"/></g></g><g clip-path="url(#099e9a373f)"><g clip-path="url(#ad53583cb6)"><path fill="#0f92c4" d="M 108.414062 264.703125 L 121.558594 220.105469 L 153.722656 229.582031 L 140.574219 274.183594 Z M 108.414062 264.703125 " fill-opacity="1" fill-rule="nonzero"/></g></g><g clip-path="url(#b9262791fb)"><g clip-path="url(#5e6a867cf8)"><path fill="#222120" d="M 237.355469 283.871094 L 167.125 207.414062 L 188.515625 187.765625 L 258.75 264.21875 Z M 237.355469 283.871094 " fill-opacity="1" fill-rule="nonzero"/></g></g><g clip-path="url(#2c44970a27)"><path fill="#0f92c4" d="M 139.097656 196.402344 L 172.628906 196.402344 L 172.628906 242.898438 L 139.097656 242.898438 Z M 139.097656 196.402344 " fill-opacity="1" fill-rule="nonzero"/></g><g clip-path="url(#fc030af0f4)"><g clip-path="url(#fc0e2b974a)"><path fill="#222120" d="M 200.007812 274.183594 L 175.734375 247.761719 L 195.453125 229.640625 L 219.726562 256.066406 Z M 200.007812 274.183594 " fill-opacity="1" fill-rule="nonzero"/></g></g><g clip-path="url(#0135e77fbd)"><g clip-path="url(#4447764c31)"><path fill="#222120" d="M 191.03125 267.863281 L 184.742188 261.015625 L 204.453125 242.910156 L 210.742188 249.757812 Z M 191.03125 267.863281 " fill-opacity="1" fill-rule="nonzero"/></g></g><g clip-path="url(#5f17d0438a)"><g clip-path="url(#9ceecc8c8a)"><path fill="#222120" d="M 215.90625 275.480469 L 191.675781 249.105469 L 208.308594 233.824219 L 232.535156 260.203125 Z M 215.90625 275.480469 " fill-opacity="1" fill-rule="nonzero"/></g></g><g clip-path="url(#6d197fd8d2)"><g clip-path="url(#70c782b87a)"><path fill="#222120" d="M 206.484375 260.300781 L 182.210938 233.878906 L 201.929688 215.757812 L 226.207031 242.183594 Z M 206.484375 260.300781 " fill-opacity="1" fill-rule="nonzero"/></g></g><g clip-path="url(#1d4e574c7b)"><g clip-path="url(#d887efcc46)"><path fill="#ffffff" d="M 153.257812 -106.582031 L 324.414062 -153.300781 L 423.695312 210.410156 L 252.535156 257.128906 Z M 153.257812 -106.582031 " fill-opacity="1" fill-rule="nonzero"/></g></g><g clip-path="url(#a2dbb143d2)"><g clip-path="url(#02e4dfb1f5)"><path fill="#ffffff" d="M 174.640625 141.910156 L 188.691406 139.027344 L 201.640625 202.089844 L 187.59375 204.972656 Z M 174.640625 141.910156 " fill-opacity="1" fill-rule="nonzero"/></g></g><g clip-path="url(#bdcdc53705)"><g clip-path="url(#01f6c11c52)"><path fill="#222120" d="M 172.632812 190.0625 L 182.402344 181.074219 L 217.832031 219.589844 L 208.0625 228.574219 Z M 172.632812 190.0625 " fill-opacity="1" fill-rule="nonzero"/></g></g><g fill="#222120" fill-opacity="1"><g transform="translate(351.006524, 242.190962)"><g><path d="M 70.234375 0 L 3.03125 0 L 3.03125 -12.421875 L 46.328125 -74.484375 L 4.203125 -74.484375 L 4.203125 -90.296875 L 69.0625 -90.296875 L 69.0625 -77.953125 L 25.8125 -15.8125 L 70.234375 -15.8125 Z M 70.234375 0 "/></g></g></g><g fill="#222120" fill-opacity="1"><g transform="translate(424.254286, 242.190962)"><g><path d="M 11.359375 0 L 11.359375 -90.296875 L 30.515625 -90.296875 L 30.515625 0 Z M 11.359375 0 "/></g></g></g><g fill="#222120" fill-opacity="1"><g transform="translate(466.127796, 242.190962)"><g><path d="M 93.328125 -45.28125 C 93.328125 -30.332031 89.617188 -18.84375 82.203125 -10.8125 C 74.796875 -2.78125 64.175781 1.234375 50.34375 1.234375 C 36.507812 1.234375 25.882812 -2.78125 18.46875 -10.8125 C 11.050781 -18.84375 7.34375 -30.375 7.34375 -45.40625 C 7.34375 -60.425781 11.0625 -71.898438 18.5 -79.828125 C 25.9375 -87.753906 36.59375 -91.71875 50.46875 -91.71875 C 64.34375 -91.71875 74.953125 -87.722656 82.296875 -79.734375 C 89.648438 -71.753906 93.328125 -60.269531 93.328125 -45.28125 Z M 27.421875 -45.28125 C 27.421875 -35.1875 29.332031 -27.585938 33.15625 -22.484375 C 36.988281 -17.378906 42.71875 -14.828125 50.34375 -14.828125 C 65.613281 -14.828125 73.25 -24.976562 73.25 -45.28125 C 73.25 -65.613281 65.65625 -75.78125 50.46875 -75.78125 C 42.84375 -75.78125 37.09375 -73.21875 33.21875 -68.09375 C 29.351562 -62.96875 27.421875 -55.363281 27.421875 -45.28125 Z M 27.421875 -45.28125 "/></g></g></g><g fill="#222120" fill-opacity="1"><g transform="translate(566.797148, 242.190962)"><g><path d="M 91.484375 0 L 67.140625 0 L 27.859375 -68.3125 L 27.296875 -68.3125 C 28.078125 -56.25 28.46875 -47.644531 28.46875 -42.5 L 28.46875 0 L 11.359375 0 L 11.359375 -90.296875 L 35.515625 -90.296875 L 74.734375 -22.671875 L 75.171875 -22.671875 C 74.554688 -34.398438 74.25 -42.695312 74.25 -47.5625 L 74.25 -90.296875 L 91.484375 -90.296875 Z M 91.484375 0 "/></g></g></g><g fill="#222120" fill-opacity="1"><g transform="translate(351.462704, 313.51422)"><g><path d="M 4.015625 0 L 4.015625 -31.875 L 10.765625 -31.875 L 10.765625 0 Z M 4.015625 0 "/></g></g></g><g fill="#222120" fill-opacity="1"><g transform="translate(366.244742, 313.51422)"><g><path d="M 17.515625 0 L 9.828125 -25.015625 L 9.640625 -25.015625 C 9.910156 -19.921875 10.046875 -16.523438 10.046875 -14.828125 L 10.046875 0 L 4.015625 0 L 4.015625 -31.875 L 13.21875 -31.875 L 20.765625 -7.5 L 20.890625 -7.5 L 28.890625 -31.875 L 38.09375 -31.875 L 38.09375 0 L 31.796875 0 L 31.796875 -15.09375 C 31.796875 -15.800781 31.804688 -16.617188 31.828125 -17.546875 C 31.847656 -18.484375 31.945312 -20.957031 32.125 -24.96875 L 31.921875 -24.96875 L 23.703125 0 Z M 17.515625 0 "/></g></g></g><g fill="#222120" fill-opacity="1"><g transform="translate(408.345205, 313.51422)"><g><path d="M 10.765625 -16.875 L 13 -16.875 C 15.070312 -16.875 16.625 -17.285156 17.65625 -18.109375 C 18.6875 -18.929688 19.203125 -20.128906 19.203125 -21.703125 C 19.203125 -23.285156 18.769531 -24.453125 17.90625 -25.203125 C 17.039062 -25.960938 15.6875 -26.34375 13.84375 -26.34375 L 10.765625 -26.34375 Z M 26.03125 -21.9375 C 26.03125 -18.507812 24.957031 -15.882812 22.8125 -14.0625 C 20.675781 -12.25 17.628906 -11.34375 13.671875 -11.34375 L 10.765625 -11.34375 L 10.765625 0 L 4.015625 0 L 4.015625 -31.875 L 14.1875 -31.875 C 18.0625 -31.875 21.003906 -31.039062 23.015625 -29.375 C 25.023438 -27.71875 26.03125 -25.238281 26.03125 -21.9375 Z M 26.03125 -21.9375 "/></g></g></g><g fill="#222120" fill-opacity="1"><g transform="translate(436.383111, 313.51422)"><g><path d="M 10.765625 -17.734375 L 12.953125 -17.734375 C 15.085938 -17.734375 16.660156 -18.085938 17.671875 -18.796875 C 18.691406 -19.503906 19.203125 -20.625 19.203125 -22.15625 C 19.203125 -23.664062 18.679688 -24.738281 17.640625 -25.375 C 16.609375 -26.019531 15.003906 -26.34375 12.828125 -26.34375 L 10.765625 -26.34375 Z M 10.765625 -12.234375 L 10.765625 0 L 4.015625 0 L 4.015625 -31.875 L 13.296875 -31.875 C 17.628906 -31.875 20.832031 -31.082031 22.90625 -29.5 C 24.988281 -27.925781 26.03125 -25.535156 26.03125 -22.328125 C 26.03125 -20.453125 25.515625 -18.78125 24.484375 -17.3125 C 23.453125 -15.851562 21.992188 -14.710938 20.109375 -13.890625 C 24.898438 -6.722656 28.023438 -2.09375 29.484375 0 L 21.984375 0 L 14.375 -12.234375 Z M 10.765625 -12.234375 "/></g></g></g><g fill="#222120" fill-opacity="1"><g transform="translate(465.859976, 313.51422)"><g><path d="M 22.375 0 L 4.015625 0 L 4.015625 -31.875 L 22.375 -31.875 L 22.375 -26.34375 L 10.765625 -26.34375 L 10.765625 -19.34375 L 21.5625 -19.34375 L 21.5625 -13.796875 L 10.765625 -13.796875 L 10.765625 -5.578125 L 22.375 -5.578125 Z M 22.375 0 "/></g></g></g><g fill="#222120" fill-opacity="1"><g transform="translate(490.867347, 313.51422)"><g><path d="M 22.828125 -8.859375 C 22.828125 -5.972656 21.789062 -3.703125 19.71875 -2.046875 C 17.644531 -0.390625 14.765625 0.4375 11.078125 0.4375 C 7.671875 0.4375 4.660156 -0.203125 2.046875 -1.484375 L 2.046875 -7.765625 C 4.203125 -6.804688 6.023438 -6.128906 7.515625 -5.734375 C 9.003906 -5.335938 10.363281 -5.140625 11.59375 -5.140625 C 13.082031 -5.140625 14.222656 -5.421875 15.015625 -5.984375 C 15.804688 -6.554688 16.203125 -7.40625 16.203125 -8.53125 C 16.203125 -9.15625 16.023438 -9.707031 15.671875 -10.1875 C 15.328125 -10.675781 14.816406 -11.144531 14.140625 -11.59375 C 13.460938 -12.050781 12.085938 -12.773438 10.015625 -13.765625 C 8.066406 -14.671875 6.601562 -15.546875 5.625 -16.390625 C 4.65625 -17.234375 3.878906 -18.210938 3.296875 -19.328125 C 2.710938 -20.453125 2.421875 -21.765625 2.421875 -23.265625 C 2.421875 -26.085938 3.375 -28.304688 5.28125 -29.921875 C 7.195312 -31.535156 9.84375 -32.34375 13.21875 -32.34375 C 14.875 -32.34375 16.453125 -32.144531 17.953125 -31.75 C 19.460938 -31.351562 21.035156 -30.800781 22.671875 -30.09375 L 20.5 -24.828125 C 18.800781 -25.523438 17.394531 -26.007812 16.28125 -26.28125 C 15.164062 -26.5625 14.070312 -26.703125 13 -26.703125 C 11.71875 -26.703125 10.734375 -26.40625 10.046875 -25.8125 C 9.367188 -25.21875 9.03125 -24.441406 9.03125 -23.484375 C 9.03125 -22.890625 9.164062 -22.367188 9.4375 -21.921875 C 9.71875 -21.484375 10.160156 -21.054688 10.765625 -20.640625 C 11.367188 -20.222656 12.796875 -19.476562 15.046875 -18.40625 C 18.023438 -16.976562 20.066406 -15.546875 21.171875 -14.109375 C 22.273438 -12.679688 22.828125 -10.929688 22.828125 -8.859375 Z M 22.828125 -8.859375 "/></g></g></g><g fill="#222120" fill-opacity="1"><g transform="translate(515.460471, 313.51422)"><g><path d="M 22.828125 -8.859375 C 22.828125 -5.972656 21.789062 -3.703125 19.71875 -2.046875 C 17.644531 -0.390625 14.765625 0.4375 11.078125 0.4375 C 7.671875 0.4375 4.660156 -0.203125 2.046875 -1.484375 L 2.046875 -7.765625 C 4.203125 -6.804688 6.023438 -6.128906 7.515625 -5.734375 C 9.003906 -5.335938 10.363281 -5.140625 11.59375 -5.140625 C 13.082031 -5.140625 14.222656 -5.421875 15.015625 -5.984375 C 15.804688 -6.554688 16.203125 -7.40625 16.203125 -8.53125 C 16.203125 -9.15625 16.023438 -9.707031 15.671875 -10.1875 C 15.328125 -10.675781 14.816406 -11.144531 14.140625 -11.59375 C 13.460938 -12.050781 12.085938 -12.773438 10.015625 -13.765625 C 8.066406 -14.671875 6.601562 -15.546875 5.625 -16.390625 C 4.65625 -17.234375 3.878906 -18.210938 3.296875 -19.328125 C 2.710938 -20.453125 2.421875 -21.765625 2.421875 -23.265625 C 2.421875 -26.085938 3.375 -28.304688 5.28125 -29.921875 C 7.195312 -31.535156 9.84375 -32.34375 13.21875 -32.34375 C 14.875 -32.34375 16.453125 -32.144531 17.953125 -31.75 C 19.460938 -31.351562 21.035156 -30.800781 22.671875 -30.09375 L 20.5 -24.828125 C 18.800781 -25.523438 17.394531 -26.007812 16.28125 -26.28125 C 15.164062 -26.5625 14.070312 -26.703125 13 -26.703125 C 11.71875 -26.703125 10.734375 -26.40625 10.046875 -25.8125 C 9.367188 -25.21875 9.03125 -24.441406 9.03125 -23.484375 C 9.03125 -22.890625 9.164062 -22.367188 9.4375 -21.921875 C 9.71875 -21.484375 10.160156 -21.054688 10.765625 -20.640625 C 11.367188 -20.222656 12.796875 -19.476562 15.046875 -18.40625 C 18.023438 -16.976562 20.066406 -15.546875 21.171875 -14.109375 C 22.273438 -12.679688 22.828125 -10.929688 22.828125 -8.859375 Z M 22.828125 -8.859375 "/></g></g></g><g fill="#222120" fill-opacity="1"><g transform="translate(540.053595, 313.51422)"><g><path d="M 32.953125 -15.984375 C 32.953125 -10.703125 31.640625 -6.644531 29.015625 -3.8125 C 26.398438 -0.976562 22.648438 0.4375 17.765625 0.4375 C 12.878906 0.4375 9.128906 -0.976562 6.515625 -3.8125 C 3.898438 -6.644531 2.59375 -10.71875 2.59375 -16.03125 C 2.59375 -21.332031 3.90625 -25.378906 6.53125 -28.171875 C 9.15625 -30.972656 12.914062 -32.375 17.8125 -32.375 C 22.707031 -32.375 26.453125 -30.960938 29.046875 -28.140625 C 31.648438 -25.328125 32.953125 -21.273438 32.953125 -15.984375 Z M 9.6875 -15.984375 C 9.6875 -12.421875 10.359375 -9.738281 11.703125 -7.9375 C 13.054688 -6.132812 15.078125 -5.234375 17.765625 -5.234375 C 23.160156 -5.234375 25.859375 -8.816406 25.859375 -15.984375 C 25.859375 -23.160156 23.175781 -26.75 17.8125 -26.75 C 15.125 -26.75 13.097656 -25.84375 11.734375 -24.03125 C 10.367188 -22.226562 9.6875 -19.546875 9.6875 -15.984375 Z M 14.21875 -36.71875 C 13.757812 -36.71875 13.320312 -36.523438 12.90625 -36.140625 C 12.5 -35.753906 12.203125 -35.171875 12.015625 -34.390625 L 8.765625 -34.390625 C 8.921875 -36.492188 9.519531 -38.140625 10.5625 -39.328125 C 11.601562 -40.523438 12.976562 -41.125 14.6875 -41.125 C 15.289062 -41.125 15.878906 -41.003906 16.453125 -40.765625 C 17.023438 -40.523438 17.585938 -40.265625 18.140625 -39.984375 C 18.703125 -39.703125 19.253906 -39.441406 19.796875 -39.203125 C 20.335938 -38.972656 20.867188 -38.859375 21.390625 -38.859375 C 21.835938 -38.859375 22.269531 -39.046875 22.6875 -39.421875 C 23.101562 -39.804688 23.40625 -40.390625 23.59375 -41.171875 L 26.84375 -41.171875 C 26.675781 -39.066406 26.066406 -37.414062 25.015625 -36.21875 C 23.960938 -35.03125 22.59375 -34.4375 20.90625 -34.4375 C 20.3125 -34.4375 19.726562 -34.554688 19.15625 -34.796875 C 18.582031 -35.035156 18.015625 -35.296875 17.453125 -35.578125 C 16.890625 -35.859375 16.335938 -36.117188 15.796875 -36.359375 C 15.265625 -36.597656 14.738281 -36.71875 14.21875 -36.71875 Z M 14.21875 -36.71875 "/></g></g></g><g fill="#222120" fill-opacity="1"><g transform="translate(575.591532, 313.51422)"><g><path d="M 22.375 0 L 4.015625 0 L 4.015625 -31.875 L 22.375 -31.875 L 22.375 -26.34375 L 10.765625 -26.34375 L 10.765625 -19.34375 L 21.5625 -19.34375 L 21.5625 -13.796875 L 10.765625 -13.796875 L 10.765625 -5.578125 L 22.375 -5.578125 Z M 22.375 0 "/></g></g></g><g fill="#222120" fill-opacity="1"><g transform="translate(600.598913, 313.51422)"><g><path d="M 22.828125 -8.859375 C 22.828125 -5.972656 21.789062 -3.703125 19.71875 -2.046875 C 17.644531 -0.390625 14.765625 0.4375 11.078125 0.4375 C 7.671875 0.4375 4.660156 -0.203125 2.046875 -1.484375 L 2.046875 -7.765625 C 4.203125 -6.804688 6.023438 -6.128906 7.515625 -5.734375 C 9.003906 -5.335938 10.363281 -5.140625 11.59375 -5.140625 C 13.082031 -5.140625 14.222656 -5.421875 15.015625 -5.984375 C 15.804688 -6.554688 16.203125 -7.40625 16.203125 -8.53125 C 16.203125 -9.15625 16.023438 -9.707031 15.671875 -10.1875 C 15.328125 -10.675781 14.816406 -11.144531 14.140625 -11.59375 C 13.460938 -12.050781 12.085938 -12.773438 10.015625 -13.765625 C 8.066406 -14.671875 6.601562 -15.546875 5.625 -16.390625 C 4.65625 -17.234375 3.878906 -18.210938 3.296875 -19.328125 C 2.710938 -20.453125 2.421875 -21.765625 2.421875 -23.265625 C 2.421875 -26.085938 3.375 -28.304688 5.28125 -29.921875 C 7.195312 -31.535156 9.84375 -32.34375 13.21875 -32.34375 C 14.875 -32.34375 16.453125 -32.144531 17.953125 -31.75 C 19.460938 -31.351562 21.035156 -30.800781 22.671875 -30.09375 L 20.5 -24.828125 C 18.800781 -25.523438 17.394531 -26.007812 16.28125 -26.28125 C 15.164062 -26.5625 14.070312 -26.703125 13 -26.703125 C 11.71875 -26.703125 10.734375 -26.40625 10.046875 -25.8125 C 9.367188 -25.21875 9.03125 -24.441406 9.03125 -23.484375 C 9.03125 -22.890625 9.164062 -22.367188 9.4375 -21.921875 C 9.71875 -21.484375 10.160156 -21.054688 10.765625 -20.640625 C 11.367188 -20.222656 12.796875 -19.476562 15.046875 -18.40625 C 18.023438 -16.976562 20.066406 -15.546875 21.171875 -14.109375 C 22.273438 -12.679688 22.828125 -10.929688 22.828125 -8.859375 Z M 22.828125 -8.859375 "/></g></g></g><g fill="#0f92c4" fill-opacity="1"><g transform="translate(639.31257, 312.941737)"><g><path d="M 40.140625 -43.515625 C 40.140625 -40.015625 39.078125 -37.035156 36.953125 -34.578125 C 34.835938 -32.128906 31.863281 -30.441406 28.03125 -29.515625 L 28.03125 -29.296875 C 32.550781 -28.734375 35.972656 -27.359375 38.296875 -25.171875 C 40.617188 -22.984375 41.78125 -20.035156 41.78125 -16.328125 C 41.78125 -10.941406 39.828125 -6.742188 35.921875 -3.734375 C 32.015625 -0.734375 26.429688 0.765625 19.171875 0.765625 C 13.085938 0.765625 7.691406 -0.242188 2.984375 -2.265625 L 2.984375 -12.34375 C 5.160156 -11.25 7.550781 -10.351562 10.15625 -9.65625 C 12.757812 -8.96875 15.34375 -8.625 17.90625 -8.625 C 21.8125 -8.625 24.695312 -9.285156 26.5625 -10.609375 C 28.425781 -11.941406 29.359375 -14.078125 29.359375 -17.015625 C 29.359375 -19.648438 28.285156 -21.515625 26.140625 -22.609375 C 23.992188 -23.710938 20.570312 -24.265625 15.875 -24.265625 L 11.609375 -24.265625 L 11.609375 -33.359375 L 15.953125 -33.359375 C 20.296875 -33.359375 23.46875 -33.925781 25.46875 -35.0625 C 27.476562 -36.195312 28.484375 -38.144531 28.484375 -40.90625 C 28.484375 -45.144531 25.828125 -47.265625 20.515625 -47.265625 C 18.671875 -47.265625 16.796875 -46.957031 14.890625 -46.34375 C 12.984375 -45.738281 10.867188 -44.679688 8.546875 -43.171875 L 3.0625 -51.328125 C 8.175781 -55.015625 14.273438 -56.859375 21.359375 -56.859375 C 27.160156 -56.859375 31.738281 -55.679688 35.09375 -53.328125 C 38.457031 -50.972656 40.140625 -47.703125 40.140625 -43.515625 Z M 40.140625 -43.515625 "/></g></g></g><g fill="#0f92c4" fill-opacity="1"><g transform="translate(684.122414, 312.941737)"><g><path d="M 53.5625 -28.5625 C 53.5625 -19.332031 50.929688 -12.265625 45.671875 -7.359375 C 40.421875 -2.453125 32.835938 0 22.921875 0 L 7.046875 0 L 7.046875 -56.046875 L 24.65625 -56.046875 C 33.800781 -56.046875 40.90625 -53.628906 45.96875 -48.796875 C 51.03125 -43.972656 53.5625 -37.226562 53.5625 -28.5625 Z M 41.21875 -28.25 C 41.21875 -40.289062 35.898438 -46.3125 25.265625 -46.3125 L 18.9375 -46.3125 L 18.9375 -9.8125 L 24.03125 -9.8125 C 35.488281 -9.8125 41.21875 -15.957031 41.21875 -28.25 Z M 41.21875 -28.25 "/></g></g></g><path stroke-linecap="butt" transform="matrix(0.749891, 0.000000000000000163, -0.000000000000000163, 0.749891, 350.927459, 320.489563)" fill="none" stroke-linejoin="miter" d="M -0.002237 1.998582 L 522.802996 1.998582 " stroke="#222120" stroke-width="4" stroke-opacity="1" stroke-miterlimit="4"/></svg>